<?xml version="1.0" encoding="UTF-8"?>
<svg version="1.1" xmlns="http://www.w3.org/2000/svg" width="4783" height="5226">
<path d="M0 0 C248.16 0 496.32 0 752 0 C752 385.77 752 771.54 752 1169 C757.28 1169.33 762.56 1169.66 768 1170 C773.39846991 1170.41813506 778.79316895 1170.84842107 784.1875 1171.3125 C784.92756287 1171.37591583 785.66762573 1171.43933167 786.43011475 1171.50466919 C803.59061492 1172.98475949 820.71038095 1174.8030549 837.82330322 1176.75256348 C839.90330974 1176.98900871 841.9835913 1177.22286396 844.06396484 1177.45605469 C864.81499295 1179.79995588 885.45841164 1182.7571889 906.11489868 1185.81240845 C907.12627899 1185.96196991 908.1376593 1186.11153137 909.1796875 1186.265625 C910.18502533 1186.41430023 911.19036316 1186.56297546 912.22616577 1186.71615601 C920.87412478 1187.9906708 929.53062303 1189.19665774 938.19140625 1190.38040161 C951.7505259 1192.23427961 965.27380833 1194.24330349 978.77685547 1196.47314453 C982.34023652 1197.05561509 985.90613193 1197.62069706 989.47265625 1198.18359375 C1003.25793647 1200.36626312 1017.00541414 1202.68213314 1030.72143555 1205.26757812 C1036.70070654 1206.39404951 1042.68040342 1207.47097264 1048.6875 1208.4375 C1067.389816 1211.47657065 1086.03775826 1215.02482394 1104.52539062 1219.17089844 C1113.14686913 1221.08438598 1121.82088682 1222.67697836 1130.5168457 1224.21313477 C1136.7348083 1225.32748361 1142.8255136 1226.67525507 1148.94213867 1228.25 C1154.44061513 1229.59860836 1160.00455234 1230.6167612 1165.5625 1231.6875 C1190.1127397 1236.51597034 1214.44333149 1242.27079189 1238.6953125 1248.4140625 C1244.36836379 1249.84904102 1250.05428192 1251.22070462 1255.75 1252.5625 C1286.26008584 1259.77672208 1286.26008584 1259.77672208 1300.43212891 1264.10986328 C1306.60336458 1265.96079433 1312.85127396 1267.41593841 1319.125 1268.875 C1329.44299179 1271.28467056 1339.53055238 1274.18375067 1349.640625 1277.34375 C1354.46434993 1278.84965985 1359.31224893 1280.23425989 1364.1875 1281.5625 C1379.81766852 1285.84609264 1395.25340202 1290.69284858 1410.66918945 1295.68920898 C1417.27603333 1297.8247319 1423.89474583 1299.87700214 1430.5625 1301.8125 C1444.49322878 1305.89260497 1458.16768432 1310.8111377 1471.87695312 1315.57080078 C1475.49302516 1316.82575001 1479.11294224 1318.0691877 1482.734375 1319.30859375 C1493.56635849 1323.025745 1504.27121692 1326.97482858 1514.92089844 1331.18408203 C1518.29036172 1332.50638667 1521.6740856 1333.78965866 1525.0625 1335.0625 C1525.70912598 1335.30556885 1526.35575195 1335.5486377 1527.02197266 1335.79907227 C1531.19763459 1337.35702326 1535.39533108 1338.84065587 1539.60693359 1340.29833984 C1545.89666016 1342.47753446 1551.97366652 1344.79032536 1557.9921875 1347.65234375 C1561.95682006 1349.42870509 1566.00311136 1350.95528055 1570.0625 1352.5 C1575.74656679 1354.66893555 1581.19556172 1356.9861974 1586.5859375 1359.8203125 C1590.53039702 1361.74786391 1594.64902437 1363.20501735 1598.7578125 1364.7421875 C1602.75654746 1366.29350396 1606.62332998 1368.07257804 1610.51171875 1369.87890625 C1613.31974369 1371.14406034 1616.16402128 1372.21499456 1619.05859375 1373.26171875 C1621.14331813 1374.05450126 1623.15789499 1374.95044309 1625.1875 1375.875 C1628.70759993 1377.46472255 1632.26173686 1378.88529478 1635.875 1380.25 C1647.55638429 1384.69221656 1659.05714853 1389.59984482 1670.39453125 1394.85546875 C1673.41328452 1396.18154777 1676.4755327 1397.3419391 1679.5625 1398.5 C1683.4429048 1399.9619835 1687.14218071 1401.50996655 1690.8125 1403.4375 C1694.87156398 1405.538586 1699.02301109 1407.19018585 1703.3125 1408.75 C1710.70249758 1411.44114493 1717.91267673 1414.47629155 1725.12768555 1417.60351562 C1730.76939943 1420.04796632 1736.43073094 1422.43073212 1742.125 1424.75 C1747.59070249 1426.97802895 1752.96991567 1429.33409589 1758.32421875 1431.8203125 C1761.36593733 1433.16133295 1764.44993432 1434.3332408 1767.5625 1435.5 C1771.4429048 1436.9619835 1775.14218071 1438.50996655 1778.8125 1440.4375 C1782.81419684 1442.50536248 1786.8981674 1444.14805871 1791.125 1445.6875 C1798.26743786 1448.29253299 1805.29588503 1451.13593132 1812.3125 1454.0625 C1813.3020166 1454.47395264 1814.2915332 1454.88540527 1815.31103516 1455.30932617 C1820.18370776 1457.34983402 1825.01896561 1459.44888815 1829.8203125 1461.65234375 C1833.68733433 1463.42491603 1837.56440949 1465.0404624 1841.5625 1466.5 C1845.50015523 1467.98415745 1849.26492683 1469.56284698 1853 1471.5 C1857.73057901 1473.94921913 1862.59316878 1475.81716061 1867.578125 1477.68359375 C1872.28487272 1479.49429464 1876.89093935 1481.51817476 1881.515625 1483.52734375 C1884.90026903 1484.95784913 1888.30907426 1486.27417217 1891.75 1487.5625 C1896.48478658 1489.35234082 1900.92173779 1491.42213305 1905.41015625 1493.75 C1909.42854458 1495.68949361 1913.60123779 1497.18701297 1917.77734375 1498.75 C1920.74442053 1499.90086614 1923.6160267 1501.15666455 1926.5 1502.5 C1930.4476991 1504.33613912 1934.4264144 1505.96279789 1938.5 1507.5 C1943.45689834 1509.37195808 1948.25220058 1511.45036733 1953.0546875 1513.68359375 C1956.49816495 1515.22265463 1959.99134602 1516.61852246 1963.5 1518 C1967.92975235 1519.7441456 1972.30697904 1521.55455731 1976.625 1523.5625 C1981.60144455 1525.8735195 1986.68074426 1527.8134884 1991.8125 1529.75 C1995.6802242 1531.26675459 1999.42192156 1532.99856817 2003.1875 1534.75 C2006.25523566 1536.11343807 2009.35926287 1537.31481618 2012.5 1538.5 C2017.50660914 1540.38928647 2022.34554742 1542.49771119 2027.1953125 1544.75390625 C2030.21891711 1546.09726261 2033.27754068 1547.27502426 2036.375 1548.4375 C2041.96715693 1550.54612655 2047.33793634 1552.98148567 2052.7421875 1555.52734375 C2057.05304649 1557.47601742 2061.45519098 1559.12347096 2065.8828125 1560.78515625 C2069.72857913 1562.283945 2073.44349764 1564.00788827 2077.18359375 1565.75 C2080.27153012 1567.12051267 2083.3986266 1568.31586025 2086.5625 1569.5 C2090.50015523 1570.98415745 2094.26492683 1572.56284698 2098 1574.5 C2102.62885904 1576.89219435 2107.36973696 1578.72574571 2112.24609375 1580.55078125 C2116.7142536 1582.2474432 2121.10281496 1584.12870956 2125.5 1586 C2130.88306614 1588.29030581 2136.26778221 1590.51679558 2141.75 1592.5625 C2147.11026349 1594.58280236 2152.24184618 1596.94478237 2157.40625 1599.40991211 C2162.49457146 1601.81806012 2167.67830032 1603.85190232 2172.953125 1605.8203125 C2176.778042 1607.3012419 2180.46703698 1609.01885274 2184.18359375 1610.75 C2187.27153012 1612.12051267 2190.3986266 1613.31586025 2193.5625 1614.5 C2197.4429048 1615.9619835 2201.14218071 1617.50996655 2204.8125 1619.4375 C2208.81419684 1621.50536248 2212.8981674 1623.14805871 2217.125 1624.6875 C2224.26743786 1627.29253299 2231.29588503 1630.13593132 2238.3125 1633.0625 C2239.3020166 1633.47395264 2240.2915332 1633.88540527 2241.31103516 1634.30932617 C2246.09004354 1636.31061067 2250.83458286 1638.364844 2255.54296875 1640.52734375 C2260.96642286 1643.01291175 2266.46538876 1645.27514918 2272 1647.5 C2277.5008893 1649.71129499 2282.96550724 1651.95750511 2288.3515625 1654.4375 C2294.61646589 1657.31530795 2300.98529731 1659.91369177 2307.375 1662.5 C2308.50421875 1662.96019531 2309.6334375 1663.42039062 2310.796875 1663.89453125 C2317.54990733 1666.63746772 2324.32875722 1669.29699733 2331.14697266 1671.8737793 C2333.81816501 1672.92822139 2336.40673221 1674.08056674 2339 1675.3125 C2346.96730776 1679.01119178 2355.24271107 1681.96824664 2363.46386719 1685.04638672 C2365.67023083 1685.87600324 2367.87148155 1686.71708428 2370.0703125 1687.56640625 C2379.17519455 1691.06520499 2388.39013626 1694.17877418 2397.6652832 1697.19726562 C2405.92876165 1699.90387987 2405.92876165 1699.90387987 2409.77734375 1701.58984375 C2413.13926436 1703.06093871 2416.51250296 1704.23544505 2420 1705.375 C2421.33466016 1705.81372683 2422.66929491 1706.25253093 2424.00390625 1706.69140625 C2424.67437988 1706.91070801 2425.34485352 1707.13000977 2426.03564453 1707.35595703 C2429.00673985 1708.33007454 2431.97191617 1709.32174815 2434.9375 1710.3125 C2436.16597656 1710.72113281 2437.39445312 1711.12976562 2438.66015625 1711.55078125 C2442.00411719 1712.66490322 2445.34411878 1713.79047555 2448.68359375 1714.91796875 C2459.61779273 1718.60081013 2470.55589815 1722.16196017 2481.65185547 1725.32421875 C2484.37752639 1726.10864972 2487.09696531 1726.91298972 2489.81640625 1727.71875 C2499.98619383 1730.72493376 2510.13916748 1733.65393522 2520.46484375 1736.078125 C2523.15261516 1736.77902451 2525.70114852 1737.55837033 2528.3203125 1738.4609375 C2533.12697076 1740.09655415 2537.98939523 1741.25442854 2542.9375 1742.375 C2549.65418281 1743.93105221 2556.31073686 1745.59756208 2562.9375 1747.5 C2572.06145124 1750.09265845 2581.27048019 1752.19103903 2590.53125 1754.23291016 C2594.54342243 1755.12017408 2598.55297068 1756.01885314 2602.5625 1756.91796875 C2635.96538828 1764.44212249 2635.96538828 1764.44212249 2669.63574219 1770.62207031 C2674.95005474 1771.4823827 2680.2286609 1772.40694641 2685.5 1773.5 C2695.94399109 1775.6492084 2706.47379821 1777.30882726 2717 1779 C2718.06782715 1779.17176758 2719.1356543 1779.34353516 2720.23583984 1779.52050781 C2732.91294439 1781.54655522 2745.59541222 1783.38908626 2758.34106445 1784.92822266 C2763.66092648 1785.57255242 2768.96372452 1786.27294696 2774.26245117 1787.07226562 C2791.10389584 1789.60874013 2808.06183541 1791.25609993 2825 1793 C2826.08974121 1793.11230957 2827.17948242 1793.22461914 2828.30224609 1793.34033203 C2842.84680833 1794.82109625 2857.4181368 1795.95727459 2872 1797 C2873.13050781 1797.0825 2874.26101562 1797.165 2875.42578125 1797.25 C2884.94558815 1797.93380207 2894.46915438 1798.49782438 2904 1799 C2904.86465881 1799.04596313 2905.72931763 1799.09192627 2906.62017822 1799.13928223 C2966.10271251 1802.25837623 3025.93640429 1802.20764134 3085.41912842 1799.1328125 C3087.82887601 1799.0088061 3090.23881337 1798.8901052 3092.64892578 1798.7734375 C3140.00241908 1796.453152 3187.31572253 1791.723849 3234.23471069 1784.96315002 C3239.59008201 1784.19386352 3244.94975697 1783.46203446 3250.3125 1782.74609375 C3267.37713734 1780.45854077 3284.28678538 1777.80325628 3301.19628906 1774.53027344 C3305.12077836 1773.78802416 3309.05709149 1773.13570362 3313 1772.5 C3334.31206989 1769.0084849 3355.37583894 1764.66352553 3376.41308594 1759.81689453 C3381.55754177 1758.64528078 3386.71541312 1757.54013367 3391.875 1756.4375 C3408.28689847 1752.90124262 3424.62705692 1749.06510414 3440.77734375 1744.47265625 C3447.13560539 1742.6672558 3453.5169896 1740.9463404 3459.89541626 1739.21392822 C3487.4816679 1731.7170688 3514.99037554 1724.13887305 3542.07910156 1714.98144531 C3545.23390035 1713.92140761 3548.39368581 1712.8773278 3551.5546875 1711.8359375 C3563.11960054 1708.02005295 3574.62848828 1704.10718108 3586.05200195 1699.88574219 C3593.1807569 1697.26243389 3600.36426368 1694.83552222 3607.59912109 1692.52099609 C3613.15617722 1690.71520632 3618.51908133 1688.58893999 3623.8984375 1686.30932617 C3629.04936093 1684.13486125 3634.24512791 1682.07306185 3639.4375 1680 C3640.46681641 1679.5875 3641.49613281 1679.175 3642.55664062 1678.75 C3647.83523088 1676.63988272 3653.12396255 1674.56206363 3658.43359375 1672.53125 C3665.1987224 1669.93804354 3671.91580707 1667.23422589 3678.625 1664.5 C3679.76195313 1664.03980469 3680.89890625 1663.57960938 3682.0703125 1663.10546875 C3688.23686952 1660.59500116 3694.33069343 1657.97749671 3700.37792969 1655.19238281 C3704.65214879 1653.24868765 3708.98574357 1651.44782193 3713.3125 1649.625 C3720.47073052 1646.58500493 3727.43752534 1643.36193835 3734.35546875 1639.80859375 C3738.78941792 1637.56724307 3743.33515716 1635.5779306 3747.875 1633.5625 C3754.67142472 1630.53959735 3761.36865569 1627.38747309 3767.99829102 1624.01538086 C3773.05677283 1621.44855039 3778.17342755 1619.02574221 3783.3125 1616.625 C3797.5265269 1609.94806083 3811.27806816 1602.43461772 3825.00927734 1594.82470703 C3829.31575204 1592.44577145 3833.63387917 1590.14646246 3838.0625 1588 C3845.08884994 1584.56666991 3851.77540518 1580.54430869 3858.5234375 1576.6015625 C3862.70032614 1574.16403354 3866.92300466 1571.82638934 3871.1796875 1569.53125 C3874.90674948 1567.5076928 3878.61152166 1565.4458005 3882.3125 1563.375 C3882.9830542 1563.0022998 3883.6536084 1562.62959961 3884.34448242 1562.24560547 C3888.35699619 1559.99523271 3892.17326115 1557.55814871 3896 1555 C3897.75855461 1554.01931699 3899.52932812 1553.06017459 3901.3125 1552.125 C3905.80707833 1549.72135101 3909.98435724 1547.07003801 3914.125 1544.1015625 C3916 1543 3916 1543 3919 1543 C3919 1542.34 3919 1541.68 3919 1541 C3919.85271484 1540.54560547 3919.85271484 1540.54560547 3920.72265625 1540.08203125 C3924.6122321 1537.97166038 3928.33016791 1535.84422641 3931.875 1533.1875 C3935 1531 3935 1531 3938 1531 C3938 1530.34 3938 1529.68 3938 1529 C3940.05151367 1527.65356445 3940.05151367 1527.65356445 3942.98046875 1526.05078125 C3951.02521141 1521.48867245 3958.64244614 1516.34741829 3966.3125 1511.1875 C3967.72048138 1510.2438097 3969.12868374 1509.30044902 3970.53710938 1508.35742188 C3973.32045525 1506.493319 3976.10245063 1504.62722574 3978.88354492 1502.75976562 C3983.58901597 1499.60205957 3988.30583854 1496.46142885 3993.02680969 1493.32695007 C3998.07719742 1489.96755921 4003.04216073 1486.49365496 4008 1483 C4013.68545994 1479 4013.68545994 1479 4016 1479 C4016 1478.34 4016 1477.68 4016 1477 C4017.90374355 1475.55036041 4019.87467159 1474.18815677 4021.875 1472.875 C4022.96554688 1472.15054687 4024.05609375 1471.42609375 4025.1796875 1470.6796875 C4028 1469 4028 1469 4030 1469 C4030 1468.34 4030 1467.68 4030 1467 C4031.98832256 1465.43446405 4033.97770209 1463.99007337 4036.0625 1462.5625 C4037.34067353 1461.67176244 4038.61798659 1460.77978914 4039.89453125 1459.88671875 C4040.56436035 1459.41927246 4041.23418945 1458.95182617 4041.92431641 1458.47021484 C4044.03805399 1456.97304621 4046.12177348 1455.44160614 4048.19921875 1453.89453125 C4048.87654053 1453.39042725 4049.5538623 1452.88632324 4050.25170898 1452.36694336 C4051.57002318 1451.38267726 4052.88600015 1450.3952719 4054.19946289 1449.40454102 C4058.78010688 1446 4058.78010688 1446 4061 1446 C4061 1445.34 4061 1444.68 4061 1444 C4066.41176471 1440 4066.41176471 1440 4069 1440 C4069 1439.34 4069 1438.68 4069 1438 C4070.65 1437.34 4072.3 1436.68 4074 1436 C4074 1435.34 4074 1434.68 4074 1434 C4076.31 1432.68 4078.62 1431.36 4081 1430 C4081 1698.62 4081 1967.24 4081 2244 C4070.76588221 2249.41806236 4060.68973786 2254.70121043 4050.1875 2259.5 C4048.97527879 2260.05787321 4047.76320466 2260.61606612 4046.55126953 2261.17456055 C4037.15280838 2265.49908216 4027.73010369 2269.77028128 4018.28076172 2273.98242188 C4015.99934068 2275.00029416 4013.72022527 2276.0231925 4011.44140625 2277.046875 C4002.94356487 2280.8548916 3994.40813114 2284.55544674 3985.80639648 2288.12329102 C3981.73863344 2289.81703075 3977.71601666 2291.57969553 3973.71484375 2293.42578125 C3966.6898425 2296.63999008 3959.50526836 2299.4273793 3952.31640625 2302.25 C3946.26038374 2304.64546008 3940.3078861 2307.18322651 3934.39404297 2309.91064453 C3931.57084738 2311.19527626 3928.71501294 2312.34455375 3925.8125 2313.4375 C3924.72710938 2313.84871094 3923.64171875 2314.25992188 3922.5234375 2314.68359375 C3920.02941046 2315.61539764 3917.53467105 2316.54511167 3915.0390625 2317.47265625 C3905.85189268 2320.89121466 3896.80182507 2324.55158773 3887.76953125 2328.36328125 C3878.91957311 2332.00738166 3869.94042075 2335.09553165 3860.82714844 2338.02075195 C3854.72700195 2340.00081116 3848.84302069 2342.27487577 3842.94165039 2344.78344727 C3838.29975607 2346.70315508 3833.5673658 2348.32258831 3828.8125 2349.9375 C3827.19976196 2350.49014526 3827.19976196 2350.49014526 3825.55444336 2351.05395508 C3823.10913351 2351.89121432 3820.66331969 2352.72685237 3818.21679688 2353.56054688 C3814.31331339 2354.89160905 3810.4128819 2356.23146331 3806.51277161 2357.57237244 C3802.9242639 2358.80578331 3799.33493907 2360.03680451 3795.74545288 2361.2673645 C3793.98777756 2361.87017026 3792.23030322 2362.47356243 3790.47305298 2363.0776062 C3775.02200997 2368.38561568 3759.50577681 2373.42310137 3743.81689453 2377.98339844 C3738.37433166 2379.56903781 3732.9647564 2381.25256758 3727.55566406 2382.94848633 C3699.5821196 2391.71278758 3671.48678645 2400.0896028 3643.04956055 2407.22241211 C3638.30908511 2408.43115555 3633.5859993 2409.70397645 3628.86035156 2410.96923828 C3612.72095908 2415.27865613 3596.56510376 2419.53017262 3580.25390625 2423.14306641 C3574.15825553 2424.49604167 3568.09093585 2425.94285764 3562.02709961 2427.43188477 C3528.88775229 2435.56176478 3495.47803528 2442.37467271 3461.86108398 2448.21362305 C3456.25594384 2449.19609611 3450.69028139 2450.26693109 3445.1328125 2451.4921875 C3437.67188321 2453.11741211 3430.1689522 2454.33068741 3422.625 2455.5 C3414.76221104 2456.72608882 3406.91943188 2457.9913799 3399.10546875 2459.5 C3391.41017656 2460.9774472 3383.6845408 2462.12057759 3375.9234314 2463.19143677 C3372.07287817 2463.72282121 3368.22397752 2464.26593227 3364.375 2464.80859375 C3363.62993698 2464.91340561 3362.88487396 2465.01821747 3362.11723328 2465.12620544 C3356.79665526 2465.87802178 3351.48966788 2466.6915387 3346.1875 2467.5625 C3301.87651877 2474.75396265 3256.7278957 2479.98990738 3211.91015625 2482.60546875 C3207.55737073 2482.86936515 3203.31446037 2483.35605069 3199 2484 C3195.17061344 2484.36454091 3191.33594598 2484.65133087 3187.5 2484.9375 C3186.36127441 2485.02322266 3185.22254883 2485.10894531 3184.04931641 2485.19726562 C3170.73722847 2486.18561736 3157.42011058 2487.08270275 3144.0949707 2487.875 C3142.02870141 2487.99828748 3139.96259654 2488.1241105 3137.89648438 2488.25 C3054.91062963 2493.24327145 2971.65889329 2493.09201622 2856.90429688 2488.24121094 C2853.10862764 2488.00671111 2849.31232067 2487.78746668 2845.515625 2487.5703125 C2822.27641523 2486.19643756 2799.080761 2484.19540405 2775.88458252 2482.24212646 C2773.14179549 2482.01190205 2770.39882659 2481.78401626 2767.65576172 2481.55712891 C2763.69441407 2481.22925481 2759.73356364 2480.8959907 2755.77310181 2480.55758667 C2754.36811307 2480.43816392 2752.96298549 2480.32036067 2751.55770874 2480.20437622 C2749.63439362 2480.04504015 2747.71171062 2479.8781297 2745.7890625 2479.7109375 C2744.73412598 2479.62118652 2743.67918945 2479.53143555 2742.59228516 2479.43896484 C2737.69712819 2478.84079356 2732.85202213 2477.88218584 2728 2477 C2728 3214.55 2728 3952.1 2728 4712 C2479.51 4712 2231.02 4712 1975 4712 C1975 3907.46 1975 3102.92 1975 2274 C1973.35 2273.67 1971.7 2273.34 1970 2273 C1955.45484371 2268.02577861 1941.01206216 2261.88226283 1927.09375 2255.375 C1921.53204506 2252.90313114 1915.87436433 2250.65663286 1910.22851562 2248.38476562 C1905.67443695 2246.54292278 1901.16619284 2244.64326441 1896.703125 2242.58984375 C1890.12613988 2239.56858497 1883.44254125 2236.8155903 1876.75 2234.0625 C1875.45519992 2233.52801264 1874.16044109 2232.99342534 1872.86572266 2232.45874023 C1866.3849568 2229.7855586 1859.89507538 2227.13839764 1853.375 2224.5625 C1848.41781975 2222.60028282 1843.57925053 2220.46265664 1838.74609375 2218.21484375 C1835.68131242 2216.85901588 1832.57570162 2215.67545241 1829.4375 2214.5 C1825.49984477 2213.01584255 1821.73507317 2211.43715302 1818 2209.5 C1813.26942099 2207.05078087 1808.40683122 2205.18283939 1803.421875 2203.31640625 C1799.90561584 2201.96369011 1796.45531012 2200.50114028 1793 2199 C1788.47279219 2197.03536265 1783.92951634 2195.18049197 1779.3125 2193.4375 C1774.37371649 2191.5682869 1769.59869993 2189.4761395 1764.8125 2187.25 C1761.74476434 2185.88656193 1758.64073713 2184.68518382 1755.5 2183.5 C1750.59005996 2181.64436538 1745.83580497 2179.59471635 1741.078125 2177.3828125 C1736.58370986 2175.36374783 1732.02145065 2173.5166364 1727.45214844 2171.67431641 C1723.55655426 2170.09283534 1719.72175368 2168.42289593 1715.90625 2166.65625 C1709.04115499 2163.51153219 1702.02348927 2160.76523604 1695 2158 C1687.11946166 2154.89733296 1679.29820205 2151.74365716 1671.609375 2148.18359375 C1667.12948861 2146.15154947 1662.56289868 2144.33594019 1658 2142.5 C1651.4275492 2139.83699113 1644.91993336 2137.10762067 1638.4921875 2134.109375 C1634.6006432 2132.37708882 1630.61922309 2130.89398464 1626.62890625 2129.40625 C1617.14696514 2125.73187024 1607.85127841 2121.63298132 1598.5625 2117.5 C1591.00033583 2114.15029413 1583.45096428 2110.91382409 1575.6953125 2108.0390625 C1571.98852615 2106.6100695 1568.41623919 2104.92677808 1564.81640625 2103.25 C1561.72846988 2101.87948733 1558.6013734 2100.68413975 1555.4375 2099.5 C1551.5570952 2098.0380165 1547.85781929 2096.49003345 1544.1875 2094.5625 C1540.18580316 2092.49463752 1536.1018326 2090.85194129 1531.875 2089.3125 C1524.73256214 2086.70746701 1517.70411497 2083.86406868 1510.6875 2080.9375 C1509.6979834 2080.52604736 1508.7084668 2080.11459473 1507.68896484 2079.69067383 C1502.81629224 2077.65016598 1497.98103439 2075.55111185 1493.1796875 2073.34765625 C1489.31266567 2071.57508397 1485.43559051 2069.9595376 1481.4375 2068.5 C1476.68337562 2066.70810389 1472.22506272 2064.65605016 1467.72192383 2062.31640625 C1464.87201499 2060.9381025 1462.00216412 2059.80104895 1459.0390625 2058.6875 C1452.11099801 2056.05362586 1445.23854793 2053.29713083 1438.375 2050.5 C1437.23804688 2050.03980469 1436.10109375 2049.57960938 1434.9296875 2049.10546875 C1428.68219134 2046.56205002 1422.51624206 2043.89765879 1416.38964844 2041.07617188 C1413.45019077 2039.75239486 1410.46526634 2038.60531235 1407.4375 2037.5 C1403.49984477 2036.01584255 1399.73507317 2034.43715302 1396 2032.5 C1391.3547478 2030.09933366 1386.59453068 2028.26290222 1381.703125 2026.42578125 C1377.5368556 2024.82167964 1373.42367525 2023.11442661 1369.3125 2021.375 C1368.52721924 2021.04282471 1367.74193848 2020.71064941 1366.93286133 2020.3684082 C1364.28780748 2019.24740302 1361.64379617 2018.12396804 1359 2017 C1354.5840257 2015.1233648 1350.16741277 2013.24824681 1345.75 2011.375 C1344.07599121 2010.6648877 1344.07599121 2010.6648877 1342.36816406 2009.94042969 C1336.4565718 2007.43943883 1330.53435405 2004.97848286 1324.5625 2002.625 C1319.53915535 2000.64404262 1314.63848671 1998.48864442 1309.7421875 1996.21484375 C1305.61537142 1994.38658193 1301.38968981 1992.83585008 1297.16796875 1991.2421875 C1294.32616352 1990.12789149 1291.57549637 1988.91975787 1288.8125 1987.625 C1273.70267923 1980.65456692 1257.85868747 1975.4579433 1242.13427734 1970.08007812 C1239.24633626 1969.08488796 1236.36577892 1968.07180926 1233.48828125 1967.046875 C1225.06990645 1964.0489444 1216.65465663 1961.22000245 1208.06005859 1958.76806641 C1203.67680014 1957.5137991 1199.37068797 1956.12265451 1195.0625 1954.625 C1186.15266821 1951.61124236 1177.07384354 1949.2684356 1167.984375 1946.86328125 C1163.54666466 1945.68754587 1159.12028278 1944.48116805 1154.703125 1943.23046875 C1131.82770175 1936.76496175 1108.74704555 1931.12060735 1085.67480469 1925.40673828 C1080.8740602 1924.21757677 1076.07505763 1923.02163618 1071.27734375 1921.8203125 C1068.85156939 1921.2135141 1066.4257886 1920.60674144 1064 1920 C1062.85909912 1919.71447266 1061.71819824 1919.42894531 1060.54272461 1919.13476562 C1045.90240401 1915.48705862 1031.24310838 1912.15647282 1016.43383789 1909.26782227 C1007.36366472 1907.49356653 998.33395397 1905.56708294 989.3125 1903.5625 C976.41487684 1900.70120319 963.48254558 1898.05266821 950.52270508 1895.48901367 C949.0672113 1895.20105333 947.61172615 1894.91304943 946.15625 1894.625 C945.45130905 1894.48552444 944.7463681 1894.34604889 944.02006531 1894.2023468 C937.83632739 1892.97518634 931.66737678 1891.68176656 925.5 1890.375 C916.06951954 1888.38411182 906.60826425 1886.60040125 897.12597656 1884.87451172 C890.66390568 1883.6941363 884.22112634 1882.44931514 877.78710938 1881.12475586 C863.48904123 1878.1835375 849.1161127 1875.81914637 834.6953125 1873.57763672 C831.34695067 1873.05423397 828.00133229 1872.5165505 824.65625 1871.97265625 C807.12735734 1869.15478607 789.52181192 1866.99638153 771.90103149 1864.84849548 C767.44554851 1864.30434054 762.99283379 1863.74499913 758.54296875 1863.15625 C730.82648393 1859.50228496 702.88554168 1856.94997673 675 1855 C673.89237305 1854.92040039 672.78474609 1854.84080078 671.64355469 1854.75878906 C601.58909006 1849.81670907 531.12798222 1849.42984818 461 1853 C459.71920563 1853.06507751 459.71920563 1853.06507751 458.41253662 1853.13146973 C448.26767864 1853.65364442 438.13319542 1854.28423012 428 1855 C426.86933105 1855.07718262 425.73866211 1855.15436523 424.57373047 1855.23388672 C410.06621853 1856.23142316 395.62412078 1857.61817581 381.171875 1859.22265625 C376.39377001 1859.74986396 371.61431747 1860.23578188 366.828125 1860.68359375 C349.21398742 1862.33735375 331.7523747 1864.62151902 314.24304199 1867.12133789 C307.91989231 1868.02030977 301.58887689 1868.84437365 295.25 1869.625 C293.83932251 1869.79902344 293.83932251 1869.79902344 292.40014648 1869.9765625 C288.59129863 1870.44375109 284.78179732 1870.90544299 280.97216797 1871.36621094 C277.87694806 1871.74147772 274.78223027 1872.12071954 271.6875 1872.5 C270.79385742 1872.60650879 269.90021484 1872.71301758 268.97949219 1872.82275391 C263.07605658 1873.5471604 257.21040041 1874.4346007 251.33984375 1875.3828125 C240.662178 1877.10044373 229.94885342 1878.51870995 219.22741699 1879.93249512 C201.727696 1882.24238437 184.25342439 1884.6506578 166.81152344 1887.36230469 C157.95247391 1888.73140968 149.08462334 1889.91047857 140.18457031 1890.97753906 C133.49913061 1891.78642887 126.86327116 1892.78166227 120.21923828 1893.87548828 C112.80413177 1895.07611878 105.35862937 1895.97234752 97.90234375 1896.875 C91.74483085 1897.62994411 85.62095934 1898.49208903 79.5 1899.5 C71.32481936 1900.8461704 63.12683043 1901.87934966 54.90234375 1902.875 C48.7448182 1903.62994566 42.62100529 1904.49232162 36.5 1905.5 C29.01946175 1906.72910847 21.52218097 1907.74666736 14 1908.6875 C12.95392578 1908.81898437 11.90785156 1908.95046875 10.83007812 1909.0859375 C3.39472026 1910 3.39472026 1910 0 1910 C0 1279.7 0 649.4 0 0 Z " fill="#50ACD6" transform="translate(351,257)"/>
<path d="M0 0 C1.10975189 0.07931763 2.21950378 0.15863525 3.36288452 0.24035645 C18.57236279 1.34398047 33.69298108 2.91804009 48.83282471 4.73361206 C52.53146423 5.16927165 56.23274884 5.56113297 59.9375 5.94140625 C61.6390625 6.11639648 61.6390625 6.11639648 63.375 6.29492188 C65.60392255 6.52129682 67.8331049 6.74512407 70.0625 6.96679688 C71.17625 7.08216797 72.29 7.19753906 73.4375 7.31640625 C74.39269531 7.41252197 75.34789062 7.5086377 76.33203125 7.60766602 C80.79556747 8.22418203 85.20658926 9.17881785 89.625 10.0625 C89.625 467.4425 89.625 924.8225 89.625 1396.0625 C-158.535 1396.0625 -406.695 1396.0625 -662.375 1396.0625 C-662.375 954.8525 -662.375 513.6425 -662.375 59.0625 C-656.96879475 57.71094869 -651.91872799 56.61412341 -646.44140625 55.94921875 C-645.698871 55.8546489 -644.95633575 55.76007904 -644.19129944 55.66264343 C-642.60028351 55.4600564 -641.00902257 55.25938583 -639.4175415 55.06048584 C-625.91525865 53.37008363 -612.44623417 51.52672531 -599 49.4375 C-588.53908862 47.81432732 -578.07440527 46.34542123 -567.56298828 45.08544922 C-560.87642524 44.27624732 -554.2394116 43.28102548 -547.59423828 42.18701172 C-540.17913177 40.98638122 -532.73362937 40.09015248 -525.27734375 39.1875 C-519.11981131 38.43255349 -512.99603529 37.5699996 -506.875 36.5625 C-499.93303669 35.4236878 -492.98295036 34.47659324 -486 33.625 C-468.64687102 31.50467754 -451.33853771 29.06815126 -434.03515625 26.578125 C-431.29784623 26.18439422 -428.56053362 25.79068149 -425.82321167 25.39703369 C-423.98475343 25.13263453 -422.14631344 24.86810844 -420.30789185 24.60345459 C-408.92038887 22.96618876 -397.53105488 21.40794693 -386.1081543 20.03491211 C-379.57369721 19.24079611 -373.08658997 18.25564907 -366.59204102 17.18676758 C-360.20430252 16.15217665 -353.79860137 15.34021369 -347.375 14.5625 C-340.32920203 13.70878203 -333.3149352 12.78209977 -326.3125 11.625 C-225.0622208 -4.89162236 -120.48139786 -7.72188152 0 0 Z " fill="#51ADD7" transform="translate(1013.375,2390.9375)"/>
<path d="M0 0 C248.49 0 496.98 0 753 0 C753 494.01 753 988.02 753 1497 C744.87524955 1496.32293746 737.58055075 1495.45577251 729.75 1493.625 C727.71915894 1493.16615502 725.6879067 1492.70912616 723.65625 1492.25390625 C722.68171875 1492.03492676 721.7071875 1491.81594727 720.703125 1491.59033203 C717.22988333 1490.8318152 713.74991401 1490.18695047 710.25 1489.5625 C702.96149006 1488.23181769 695.73315921 1486.66583371 688.5 1485.0625 C687.40848633 1484.82152588 686.31697266 1484.58055176 685.19238281 1484.33227539 C677.12188256 1482.52810487 669.09780912 1480.55771556 661.08209229 1478.52688599 C658.99596309 1477.99897844 656.90898836 1477.47454024 654.82177734 1476.95092773 C638.41777828 1472.83062126 622.09899237 1468.59898973 605.95703125 1463.53125 C602.22430008 1462.36187481 598.47896469 1461.29774156 594.69775391 1460.2980957 C583.69386339 1457.3883508 572.94629951 1453.71481217 562.16577148 1450.08129883 C560.73293114 1449.59840777 559.30007013 1449.11557806 557.8671875 1448.6328125 C557.17200516 1448.39856064 556.47682281 1448.16430878 555.76057434 1447.92295837 C550.59130262 1446.18622416 545.40028403 1444.53762674 540.1875 1442.9375 C521.41423898 1437.10692571 503.00940306 1430.14147746 484.76391602 1422.84301758 C477.93595823 1420.11685163 471.07055689 1417.56431134 464.12597656 1415.14941406 C460.30216951 1413.74340941 456.66279068 1412.05150329 452.98046875 1410.31640625 C449.35339167 1408.71440759 445.66145154 1407.35754215 441.9375 1406 C436.57485241 1404.03962318 431.5184386 1401.85318973 426.453125 1399.203125 C422.66034116 1397.34296987 418.7141282 1395.93195697 414.76171875 1394.44921875 C405.08143238 1390.77139442 395.51915549 1386.66622411 386.125 1382.3125 C381.37361151 1380.11672696 376.53239244 1378.23444725 371.62890625 1376.40625 C362.14696514 1372.73187024 352.85127841 1368.63298132 343.5625 1364.5 C335.98838991 1361.14500261 328.42568181 1357.90865253 320.66015625 1355.0234375 C318.07132026 1354.02743892 315.57592112 1352.92214318 313.0625 1351.75 C305.68886273 1348.32342739 298.12949454 1345.3385884 290.59765625 1342.28125 C280.46090418 1338.16154824 270.38467074 1333.89960112 260.3125 1329.625 C252.06402618 1326.12728523 243.80178345 1322.67019505 235.50610352 1319.28613281 C230.83585143 1317.37114869 226.25297371 1315.30506063 221.67578125 1313.1796875 C218.63406267 1311.83866705 215.55006568 1310.6667592 212.4375 1309.5 C208.45515804 1308.00015692 204.65281083 1306.39525616 200.875 1304.4375 C197.6924158 1302.7930805 194.57138974 1301.42400256 191.1875 1300.25 C184.696722 1297.98235903 178.43256087 1295.22692948 172.1262207 1292.49804688 C166.39907262 1290.02199173 160.65342697 1287.60376079 154.875 1285.25 C149.40930462 1283.02194985 144.03008589 1280.66590483 138.67578125 1278.1796875 C135.63406267 1276.83866705 132.55006568 1275.6667592 129.4375 1274.5 C125.5570952 1273.0380165 121.85781929 1271.49003345 118.1875 1269.5625 C114.18580316 1267.49463752 110.1018326 1265.85194129 105.875 1264.3125 C98.73256214 1261.70746701 91.70411497 1258.86406868 84.6875 1255.9375 C83.6979834 1255.52604736 82.7084668 1255.11459473 81.68896484 1254.69067383 C76.90995646 1252.68938933 72.16541714 1250.635156 67.45703125 1248.47265625 C62.0334783 1245.98704295 56.53391223 1243.72673507 51 1241.5 C44.471561 1238.85389461 38.00222498 1236.15019919 31.6171875 1233.171875 C27.22612026 1231.20572549 22.74139218 1229.4746836 18.26171875 1227.72265625 C12.13421049 1225.24581744 6.07478296 1222.60347841 0 1220 C0 817.4 0 414.8 0 0 Z " fill="#52AED8" transform="translate(2326,257)"/>
</svg>
